<svg width="586" height="486" viewBox="0 0 586 486" fill="none" xmlns="http://www.w3.org/2000/svg">
<path d="M476.352 51.5805C479.951 52.1664 483.63 51.2138 486.493 48.9553L529.864 14.736C534.224 11.2957 539.347 8.95357 544.802 7.90674L548.762 7.14676C568.082 3.43879 586 18.2449 586 37.918V37.918C586 47.1632 581.917 55.9366 574.844 61.8899L530.629 99.1041C527.694 101.574 526 105.214 526 109.05V186.597C526 190.284 524.153 193.725 521.081 195.763L490.116 216.304C483.354 220.79 474.229 216.661 473.135 208.621L467.352 166.114C466.526 160.038 459.451 157.112 454.575 160.831L429.509 179.943C427.059 181.811 425.9 184.92 426.528 187.936L431.424 211.437C432.37 215.975 430.369 220.619 426.421 223.049L399.439 239.653C393.363 243.392 385.39 240.448 383.203 233.657L369.836 192.149C368.978 189.484 367.135 187.246 364.684 185.892L328.025 165.642C321.858 162.236 320.438 153.991 325.11 148.718L345.752 125.423C348.887 121.885 353.933 120.745 358.284 122.593L382.604 132.921C385.57 134.18 389.002 133.537 391.311 131.289L416.752 106.517C420.882 102.497 419.533 95.561 414.198 93.3804L374.231 77.0432C366.484 73.8766 364.97 63.5623 371.481 58.3037L392.174 41.5898C394.609 39.6237 397.765 38.7874 400.854 39.2901L476.352 51.5805Z" fill="white"/>
<circle cx="324.5" cy="221.5" r="19.5" fill="white"/>
<circle cx="265.5" cy="272.5" r="19.5" fill="white"/>
<circle cx="201.5" cy="319.5" r="19.5" fill="white"/>
<circle cx="141.5" cy="370.5" r="19.5" fill="white"/>
<circle cx="79.5" cy="417.5" r="19.5" fill="white"/>
<circle cx="19.5" cy="466.5" r="19.5" fill="white"/>
</svg>
