<svg width="95" height="95" viewBox="0 0 95 95" fill="none" xmlns="http://www.w3.org/2000/svg">
<path d="M47.5 17.7333C44.5094 17.7333 41.5859 18.6202 39.0993 20.2817C36.6127 21.9432 34.6746 24.3047 33.5302 27.0677C32.3857 29.8306 32.0863 32.8709 32.6697 35.8041C33.2531 38.7373 34.6933 41.4315 36.8079 43.5462C38.9226 45.6609 41.6169 47.101 44.5501 47.6845C47.4832 48.2679 50.5235 47.9685 53.2865 46.824C56.0495 45.6795 58.411 43.7415 60.0725 41.2549C61.734 38.7682 62.6208 35.8448 62.6208 32.8542C62.6208 28.8439 61.0277 24.9978 58.192 22.1621C55.3563 19.3264 51.5103 17.7333 47.5 17.7333V17.7333ZM47.5 42.6972C45.5532 42.6972 43.6502 42.1199 42.0315 41.0384C40.4128 39.9568 39.1512 38.4195 38.4062 36.6209C37.6612 34.8224 37.4663 32.8433 37.8461 30.9339C38.2259 29.0245 39.1633 27.2707 40.5399 25.8941C41.9165 24.5175 43.6703 23.58 45.5797 23.2002C47.4891 22.8205 49.4682 23.0154 51.2668 23.7604C53.0653 24.5054 54.6026 25.767 55.6842 27.3857C56.7658 29.0043 57.343 30.9074 57.343 32.8542C57.3361 35.4601 56.2959 37.957 54.4508 39.7972C52.6056 41.6374 50.106 42.6708 47.5 42.6708V42.6972Z" fill="black"/>
<path d="M47.5 5.27777C39.2804 5.28464 31.3975 8.54389 25.573 14.3437C19.7485 20.1434 16.4557 28.0124 16.4139 36.2319C16.4139 48.5555 23.3278 58.8736 28.3944 66.3944L29.318 67.7667C34.3591 75.0728 39.7669 82.1188 45.5208 88.8778L47.5264 91.2264L49.5319 88.8778C55.2851 82.1182 60.6929 75.0722 65.7347 67.7667L66.6583 66.368C71.6986 58.8472 78.6125 48.5555 78.6125 36.2319C78.5706 28.0079 75.2743 20.1349 69.4441 14.3344C63.6139 8.53384 55.7242 5.27766 47.5 5.27777V5.27777ZM62.2514 63.3333L61.3014 64.7319C56.7625 71.5403 50.7458 79.1667 47.5 82.9403C44.3861 79.1667 38.2375 71.5403 33.6986 64.7319L32.775 63.3333C28.1042 56.3667 21.6917 46.8403 21.6917 36.1264C21.6917 32.7372 22.3592 29.3812 23.6562 26.25C24.9532 23.1187 26.8542 20.2737 29.2507 17.8771C31.6473 15.4806 34.4924 13.5796 37.6236 12.2826C40.7548 10.9856 44.1108 10.318 47.5 10.318C50.8892 10.318 54.2452 10.9856 57.3764 12.2826C60.5076 13.5796 63.3527 15.4806 65.7492 17.8771C68.1458 20.2737 70.0468 23.1187 71.3438 26.25C72.6408 29.3812 73.3083 32.7372 73.3083 36.1264C73.3083 46.9458 66.9222 56.4722 62.2514 63.3333V63.3333Z" fill="black"/>
</svg>
