<svg width="9" height="12" viewBox="0 0 9 12" fill="none" xmlns="http://www.w3.org/2000/svg">
<path d="M4.0375 11.76C0.632 6.821 0 6.3145 0 4.5C0 2.0145 2.0145 0 4.5 0C6.9855 0 9 2.0145 9 4.5C9 6.3145 8.368 6.82 4.9625 11.758C4.91078 11.8325 4.84184 11.8934 4.76154 11.9355C4.68123 11.9776 4.59195 11.9997 4.50127 11.9999C4.4106 12.0001 4.32121 11.9784 4.24073 11.9366C4.16024 11.8948 4.09104 11.8343 4.039 11.76L4.038 11.758L4.0375 11.76ZM4.5 6.375C4.99728 6.375 5.47419 6.17746 5.82583 5.82583C6.17746 5.47419 6.375 4.99728 6.375 4.5C6.375 4.00272 6.17746 3.52581 5.82583 3.17417C5.47419 2.82254 4.99728 2.625 4.5 2.625C4.00272 2.625 3.52581 2.82254 3.17417 3.17417C2.82254 3.52581 2.625 4.00272 2.625 4.5C2.625 4.99728 2.82254 5.47419 3.17417 5.82583C3.52581 6.17746 4.00272 6.375 4.5 6.375V6.375Z" fill="#0064D2"/>
</svg>
