<svg width="18" height="18" viewBox="0 0 18 18" fill="none" xmlns="http://www.w3.org/2000/svg">
<path d="M17 8.39001C17.1859 8.25158 17.3237 8.05845 17.3942 7.83772C17.4648 7.61698 17.4645 7.37971 17.3933 7.15917C17.3222 6.93863 17.1838 6.74587 16.9976 6.60794C16.8114 6.47 16.5867 6.3938 16.355 6.39001L11.855 6.22001C11.8329 6.21848 11.8117 6.21059 11.794 6.19729C11.7762 6.18398 11.7627 6.16583 11.755 6.14501L10.2 1.94501C10.1219 1.73133 9.98001 1.54682 9.79354 1.41646C9.60708 1.2861 9.38506 1.21619 9.15754 1.21619C8.93003 1.21619 8.708 1.2861 8.52154 1.41646C8.33507 1.54682 8.19317 1.73133 8.11504 1.94501L6.56504 6.16001C6.55738 6.18083 6.54386 6.19898 6.52612 6.21229C6.50838 6.22559 6.48717 6.23349 6.46504 6.23501L1.96504 6.40501C1.73335 6.4088 1.50864 6.485 1.32244 6.62294C1.13624 6.76087 0.997873 6.95363 0.926747 7.17417C0.855622 7.39471 0.855303 7.63198 0.925835 7.85272C0.996366 8.07345 1.13421 8.26658 1.32004 8.40501L4.85004 11.18C4.86771 11.1939 4.88091 11.2127 4.88802 11.234C4.89513 11.2553 4.89583 11.2783 4.89004 11.3L3.67504 15.605C3.61208 15.8242 3.61818 16.0575 3.69251 16.2732C3.76684 16.4888 3.90579 16.6763 4.09047 16.8102C4.27514 16.944 4.49656 17.0177 4.72462 17.0213C4.95267 17.0248 5.17629 16.9581 5.36504 16.83L9.09504 14.33C9.11342 14.3173 9.13521 14.3105 9.15754 14.3105C9.17987 14.3105 9.20167 14.3173 9.22004 14.33L12.95 16.83C13.1362 16.9624 13.3591 17.0336 13.5875 17.0336C13.816 17.0336 14.0388 16.9624 14.225 16.83C14.4098 16.6974 14.5488 16.5108 14.6232 16.2959C14.6975 16.081 14.7034 15.8484 14.64 15.63L13.415 11.31C13.4086 11.2883 13.4089 11.2652 13.4161 11.2437C13.4232 11.2222 13.4368 11.2035 13.455 11.19L17 8.39001Z" fill="#FEDE00"/>
</svg>
