<svg width="75" height="75" viewBox="0 0 75 75" fill="none" xmlns="http://www.w3.org/2000/svg">
<path d="M28.125 40.625C35.0286 40.625 40.625 35.0286 40.625 28.125C40.625 21.2214 35.0286 15.625 28.125 15.625C21.2214 15.625 15.625 21.2214 15.625 28.125C15.625 35.0286 21.2214 40.625 28.125 40.625Z" stroke="black" stroke-width="4.5" stroke-linecap="round" stroke-linejoin="round"/>
<path d="M46.875 40.625C48.9637 40.6249 51.0191 40.1014 52.8534 39.1023C54.6876 38.1032 56.2423 36.6604 57.3753 34.9057C58.5084 33.1511 59.1837 31.1404 59.3395 29.0575C59.4953 26.9747 59.1267 24.8859 58.2674 22.9822C57.408 21.0785 56.0853 19.4204 54.4201 18.1595C52.7549 16.8986 50.8003 16.0751 48.7349 15.7642C46.6694 15.4534 44.559 15.665 42.5964 16.3798C40.6339 17.0946 38.8817 18.2898 37.5 19.8563M50 59.375C50 49.0188 40.2062 40.625 28.125 40.625C16.0438 40.625 6.25 49.0188 6.25 59.375H50Z" stroke="black" stroke-width="4.5" stroke-linecap="round" stroke-linejoin="round"/>
<path d="M68.75 59.375C68.75 49.0188 58.9562 40.625 46.875 40.625C44.3531 40.625 40.3031 39.7094 37.5 36.7656" stroke="black" stroke-width="4.5" stroke-linecap="round" stroke-linejoin="round"/>
</svg>
